<svg width="24" height="29" viewBox="0 0 24 29" fill="none" xmlns="http://www.w3.org/2000/svg">
<path id="Vector" d="M24 11.5609V28.1125H19.2995V24.4582C17.697 26.9302 14.599 28.3274 10.3257 28.3274C4.12959 28.3274 0.283707 24.9956 0.283707 20.2666C0.283707 15.86 3.06129 12.3132 11.1804 12.3132H18.979V11.3459C18.979 7.15428 16.5219 4.78977 11.7145 4.78977C8.50963 4.78977 5.19789 5.97203 3.06129 7.69167L1.03151 3.92995C3.8091 1.67291 7.86865 0.383179 12.2487 0.383179C19.8336 0.490657 24 4.1449 24 11.5609ZM19.0858 19.7292V15.86H11.5009C6.58669 15.86 5.19789 17.7946 5.19789 20.0516C5.19789 22.7386 7.44132 24.4582 11.1804 24.4582C14.9194 24.5657 17.9107 22.9535 19.0858 19.7292Z" fill="white"/>
</svg>
