<svg width="24" height="29" viewBox="0 0 24 29" fill="none" xmlns="http://www.w3.org/2000/svg">
<path id="Vector" d="M0.905426 25.2107L2.9352 21.3415C5.28546 22.9536 8.91769 24.1359 12.4431 24.1359C17.0368 24.1359 18.8529 22.7387 18.8529 20.3742C18.8529 14.2479 1.65323 19.5144 1.65323 8.6591C1.65323 3.71512 6.03328 0.490784 12.9772 0.490784C16.5026 0.490784 20.5622 1.45808 22.9124 2.96277L20.7758 6.83198C18.3187 5.21981 15.648 4.68242 12.9772 4.68242C8.70403 4.68242 6.56743 6.29459 6.56743 8.44414C6.56743 14.8928 23.7671 9.6264 23.7671 20.2667C23.7671 25.2107 19.2802 28.3275 12.0158 28.3275C7.63573 28.435 3.14886 27.0378 0.905426 25.2107Z" fill="white"/>
</svg>
